{
    "asset" : {
        "generator" : "Khronos glTF Blender I/O v1.5.17",
        "version" : "2.0"
    },
    "scene" : 0,
    "scenes" : [
        {
            "name" : "Scene",
            "nodes" : [
                0
            ]
        }
    ],
    "nodes" : [
        {
            "mesh" : 0,
            "name" : "The Independent",
            "rotation" : [
                0,
                0.5991457104682922,
                0,
                0.8006399869918823
            ],
            "scale" : [
                1,
                0.9176555871963501,
                0.800000011920929
            ],
            "translation" : [
                -8.60150146484375,
                25.83993911743164,
                27.132122039794922
            ]
        }
    ],
    "materials" : [
        {
            "doubleSided" : true,
            "name" : "*4",
            "pbrMetallicRoughness" : {
                "baseColorFactor" : [
                    0.24279634654521942,
                    0.28012436628341675,
                    0.2758328318595886,
                    1
                ],
                "metallicFactor" : 0,
                "roughnessFactor" : 0.4000000059604645
            }
        },
        {
            "doubleSided" : true,
            "name" : "*1",
            "pbrMetallicRoughness" : {
                "baseColorFactor" : [
                    0.373615026473999,
                    0.43134021759033203,
                    0.43681275844573975,
                    1
                ],
                "metallicFactor" : 0,
                "roughnessFactor" : 0.4000000059604645
            }
        },
        {
            "doubleSided" : true,
            "name" : "Material",
            "pbrMetallicRoughness" : {
                "baseColorFactor" : [
                    0.800000011920929,
                    0.800000011920929,
                    0.800000011920929,
                    1
                ],
                "metallicFactor" : 0,
                "roughnessFactor" : 0.4000000059604645
            }
        },
        {
            "doubleSided" : true,
            "name" : "*5",
            "pbrMetallicRoughness" : {
                "baseColorFactor" : [
                    0.1939721703529358,
                    0.28012436628341675,
                    0.29765263199806213,
                    1
                ],
                "metallicFactor" : 0,
                "roughnessFactor" : 0.4000000059604645
            }
        },
        {
            "doubleSided" : true,
            "name" : "*6",
            "pbrMetallicRoughness" : {
                "baseColorFactor" : [
                    0.04614884406328201,
                    0.07176145166158676,
                    0.08464150875806808,
                    1
                ],
                "metallicFactor" : 0,
                "roughnessFactor" : 0.4000000059604645
            }
        },
        {
            "doubleSided" : true,
            "name" : "*2",
            "pbrMetallicRoughness" : {
                "baseColorFactor" : [
                    0.5542271137237549,
                    0.6120656132698059,
                    0.6870307922363281,
                    1
                ],
                "metallicFactor" : 0,
                "roughnessFactor" : 0.4000000059604645
            }
        }
    ],
    "meshes" : [
        {
            "name" : "floor",
            "primitives" : [
                {
                    "attributes" : {
                        "POSITION" : 0,
                        "NORMAL" : 1
                    },
                    "indices" : 2,
                    "material" : 0
                },
                {
                    "attributes" : {
                        "POSITION" : 3,
                        "NORMAL" : 4
                    },
                    "indices" : 5,
                    "material" : 1
                },
                {
                    "attributes" : {
                        "POSITION" : 6,
                        "NORMAL" : 7
                    },
                    "indices" : 8,
                    "material" : 2
                },
                {
                    "attributes" : {
                        "POSITION" : 9,
                        "NORMAL" : 10
                    },
                    "indices" : 11,
                    "material" : 3
                },
                {
                    "attributes" : {
                        "POSITION" : 12,
                        "NORMAL" : 13
                    },
                    "indices" : 14,
                    "material" : 4
                },
                {
                    "attributes" : {
                        "POSITION" : 15,
                        "NORMAL" : 16
                    },
                    "indices" : 17,
                    "material" : 5
                }
            ]
        }
    ],
    "accessors" : [
        {
            "bufferView" : 0,
            "componentType" : 5126,
            "count" : 5763,
            "max" : [
                38.099998474121094,
                183.18478393554688,
                3.3527989387512207
            ],
            "min" : [
                -1.3443947182167904e-06,
                -7.619998931884766,
                -49.37759780883789
            ],
            "type" : "VEC3"
        },
        {
            "bufferView" : 1,
            "componentType" : 5126,
            "count" : 5763,
            "type" : "VEC3"
        },
        {
            "bufferView" : 2,
            "componentType" : 5123,
            "count" : 6972,
            "type" : "SCALAR"
        },
        {
            "bufferView" : 3,
            "componentType" : 5126,
            "count" : 5536,
            "max" : [
                38.099998474121094,
                183.79437255859375,
                8.032321829887223e-07
            ],
            "min" : [
                -1.271724613616243e-06,
                -3.6576004028320312,
                -49.37759780883789
            ],
            "type" : "VEC3"
        },
        {
            "bufferView" : 4,
            "componentType" : 5126,
            "count" : 5536,
            "type" : "VEC3"
        },
        {
            "bufferView" : 5,
            "componentType" : 5123,
            "count" : 6576,
            "type" : "SCALAR"
        },
        {
            "bufferView" : 6,
            "componentType" : 5126,
            "count" : 19408,
            "max" : [
                56.26353073120117,
                199.37759399414062,
                38.09999465942383
            ],
            "min" : [
                -12.316465377807617,
                -28.158645629882812,
                -49.37759780883789
            ],
            "type" : "VEC3"
        },
        {
            "bufferView" : 7,
            "componentType" : 5126,
            "count" : 19408,
            "type" : "VEC3"
        },
        {
            "bufferView" : 8,
            "componentType" : 5123,
            "count" : 25794,
            "type" : "SCALAR"
        },
        {
            "bufferView" : 9,
            "componentType" : 5126,
            "count" : 433,
            "max" : [
                56.26353073120117,
                -8.229598999023438,
                38.09999465942383
            ],
            "min" : [
                -12.316465377807617,
                -28.158645629882812,
                -45.71999740600586
            ],
            "type" : "VEC3"
        },
        {
            "bufferView" : 10,
            "componentType" : 5126,
            "count" : 433,
            "type" : "VEC3"
        },
        {
            "bufferView" : 11,
            "componentType" : 5123,
            "count" : 636,
            "type" : "SCALAR"
        },
        {
            "bufferView" : 12,
            "componentType" : 5126,
            "count" : 118,
            "max" : [
                56.26353073120117,
                -8.561750411987305,
                38.09999465942383
            ],
            "min" : [
                -12.316465377807617,
                -27.826494216918945,
                -45.71999740600586
            ],
            "type" : "VEC3"
        },
        {
            "bufferView" : 13,
            "componentType" : 5126,
            "count" : 118,
            "type" : "VEC3"
        },
        {
            "bufferView" : 14,
            "componentType" : 5123,
            "count" : 144,
            "type" : "SCALAR"
        },
        {
            "bufferView" : 15,
            "componentType" : 5126,
            "count" : 422,
            "max" : [
                33.680397033691406,
                199.1827850341797,
                -6.705594539642334
            ],
            "min" : [
                4.419599533081055,
                183.98919677734375,
                -43.28159713745117
            ],
            "type" : "VEC3"
        },
        {
            "bufferView" : 16,
            "componentType" : 5126,
            "count" : 422,
            "type" : "VEC3"
        },
        {
            "bufferView" : 17,
            "componentType" : 5123,
            "count" : 576,
            "type" : "SCALAR"
        }
    ],
    "bufferViews" : [
        {
            "buffer" : 0,
            "byteLength" : 69156,
            "byteOffset" : 0
        },
        {
            "buffer" : 0,
            "byteLength" : 69156,
            "byteOffset" : 69156
        },
        {
            "buffer" : 0,
            "byteLength" : 13944,
            "byteOffset" : 138312
        },
        {
            "buffer" : 0,
            "byteLength" : 66432,
            "byteOffset" : 152256
        },
        {
            "buffer" : 0,
            "byteLength" : 66432,
            "byteOffset" : 218688
        },
        {
            "buffer" : 0,
            "byteLength" : 13152,
            "byteOffset" : 285120
        },
        {
            "buffer" : 0,
            "byteLength" : 232896,
            "byteOffset" : 298272
        },
        {
            "buffer" : 0,
            "byteLength" : 232896,
            "byteOffset" : 531168
        },
        {
            "buffer" : 0,
            "byteLength" : 51588,
            "byteOffset" : 764064
        },
        {
            "buffer" : 0,
            "byteLength" : 5196,
            "byteOffset" : 815652
        },
        {
            "buffer" : 0,
            "byteLength" : 5196,
            "byteOffset" : 820848
        },
        {
            "buffer" : 0,
            "byteLength" : 1272,
            "byteOffset" : 826044
        },
        {
            "buffer" : 0,
            "byteLength" : 1416,
            "byteOffset" : 827316
        },
        {
            "buffer" : 0,
            "byteLength" : 1416,
            "byteOffset" : 828732
        },
        {
            "buffer" : 0,
            "byteLength" : 288,
            "byteOffset" : 830148
        },
        {
            "buffer" : 0,
            "byteLength" : 5064,
            "byteOffset" : 830436
        },
        {
            "buffer" : 0,
            "byteLength" : 5064,
            "byteOffset" : 835500
        },
        {
            "buffer" : 0,
            "byteLength" : 1152,
            "byteOffset" : 840564
        }
    ],
    "buffers" : [
        {
            "byteLength" : 841716,
            "uri" : "data:application/octet-stream;base64,"
        }
    ]
}
