{
    "asset" : {
        "generator" : "Khronos glTF Blender I/O v1.5.17",
        "version" : "2.0"
    },
    "scene" : 0,
    "scenes" : [
        {
            "name" : "Scene",
            "nodes" : [
                0
            ]
        }
    ],
    "nodes" : [
        {
            "mesh" : 0,
            "name" : "Curve",
            "scale" : [
                546.084228515625,
                546.084228515625,
                546.084228515625
            ]
        }
    ],
    "materials" : [
        {
            "doubleSided" : true,
            "name" : "SVGMat",
            "pbrMetallicRoughness" : {
                "baseColorFactor" : [
                    0.0946989357471466,
                    0.2818472981452942,
                    0.8227859139442444,
                    1
                ],
                "metallicFactor" : 0,
                "roughnessFactor" : 0.4000000059604645
            }
        }
    ],
    "meshes" : [
        {
            "name" : "Curve",
            "primitives" : [
                {
                    "attributes" : {
                        "POSITION" : 0,
                        "NORMAL" : 1,
                        "TEXCOORD_0" : 2
                    },
                    "indices" : 3,
                    "material" : 0
                }
            ]
        }
    ],
    "accessors" : [
        {
            "bufferView" : 0,
            "componentType" : 5126,
            "count" : 4026,
            "max" : [
                0.003532158210873604,
                0.00032455724431201816,
                0.00585101917386055
            ],
            "min" : [
                -0.0035377098247408867,
                -0.00032455730251967907,
                -0.004278826527297497
            ],
            "type" : "VEC3"
        },
        {
            "bufferView" : 1,
            "componentType" : 5126,
            "count" : 4026,
            "type" : "VEC3"
        },
        {
            "bufferView" : 2,
            "componentType" : 5126,
            "count" : 4026,
            "type" : "VEC2"
        },
        {
            "bufferView" : 3,
            "componentType" : 5123,
            "count" : 6444,
            "type" : "SCALAR"
        }
    ],
    "bufferViews" : [
        {
            "buffer" : 0,
            "byteLength" : 48312,
            "byteOffset" : 0
        },
        {
            "buffer" : 0,
            "byteLength" : 48312,
            "byteOffset" : 48312
        },
        {
            "buffer" : 0,
            "byteLength" : 32208,
            "byteOffset" : 96624
        },
        {
            "buffer" : 0,
            "byteLength" : 12888,
            "byteOffset" : 128832
        }
    ],
    "buffers" : [
        {
            "byteLength" : 141720,
            "uri" : "data:application/octet-stream;base64,"
        }
    ]
}
